<?xml version="1.0" encoding="UTF-8" standalone="no"?>
<!-- Created with Inkscape (http://www.inkscape.org/) -->

<svg
   xmlns:dc="http://purl.org/dc/elements/1.1/"
   xmlns:cc="http://creativecommons.org/ns#"
   xmlns:rdf="http://www.w3.org/1999/02/22-rdf-syntax-ns#"
   xmlns:svg="http://www.w3.org/2000/svg"
   xmlns="http://www.w3.org/2000/svg"
   xmlns:sodipodi="http://sodipodi.sourceforge.net/DTD/sodipodi-0.dtd"
   xmlns:inkscape="http://www.inkscape.org/namespaces/inkscape"
   version="1.1"
   id="svg2"
   width="151.24454"
   height="47.894672"
   viewBox="0 0 151.24454 47.894671"
   sodipodi:docname="dibris.svg"
   xml:space="preserve"
   inkscape:version="0.92.5 (2060ec1f9f, 2020-04-08)"><metadata
     id="metadata443"><rdf:RDF><cc:Work
         rdf:about=""><dc:format>image/svg+xml</dc:format><dc:type
           rdf:resource="http://purl.org/dc/dcmitype/StillImage" /><dc:title /></cc:Work></rdf:RDF></metadata><defs
     id="defs6"><clipPath
       clipPathUnits="userSpaceOnUse"
       id="clipPath20"><path
         d="m 345.664,0 h 58 v 61 h -58 z"
         id="path18"
         inkscape:connector-curvature="0" /></clipPath><clipPath
       clipPathUnits="userSpaceOnUse"
       id="clipPath30"><path
         d="M 0,0 H 527 V 61 H 0 Z"
         id="path28"
         inkscape:connector-curvature="0" /></clipPath><clipPath
       clipPathUnits="userSpaceOnUse"
       id="clipPath40"><path
         d="m 345,0 h 59 v 61 h -59 z"
         id="path38"
         inkscape:connector-curvature="0" /></clipPath><clipPath
       clipPathUnits="userSpaceOnUse"
       id="clipPath46"><path
         d="m 353.453,-1.891 h 42.32 c 4.254,0 7.68,3.426 7.68,7.68 v 46.637 c 0,4.258 -3.426,7.683 -7.68,7.683 h -42.32 c -4.254,0 -7.68,-3.425 -7.68,-7.683 V 5.789 c 0,-4.254 3.426,-7.68 7.68,-7.68 z"
         id="path44"
         inkscape:connector-curvature="0" /></clipPath><clipPath
       clipPathUnits="userSpaceOnUse"
       id="clipPath56"><path
         d="M 0,0 H 527 V 61 H 0 Z"
         id="path54"
         inkscape:connector-curvature="0" /></clipPath><clipPath
       clipPathUnits="userSpaceOnUse"
       id="clipPath66"><path
         d="M 169.664,0 H 527 V 61 H 169.664 Z"
         id="path64"
         inkscape:connector-curvature="0" /></clipPath><clipPath
       clipPathUnits="userSpaceOnUse"
       id="clipPath76"><path
         d="M 0,0 H 527 V 61 H 0 Z"
         id="path74"
         inkscape:connector-curvature="0" /></clipPath><clipPath
       clipPathUnits="userSpaceOnUse"
       id="clipPath86"><path
         d="M 316.168,0 H 527 V 61 H 316.168 Z"
         id="path84"
         inkscape:connector-curvature="0" /></clipPath><clipPath
       clipPathUnits="userSpaceOnUse"
       id="clipPath96"><path
         d="M 0,0 H 527 V 61 H 0 Z"
         id="path94"
         inkscape:connector-curvature="0" /></clipPath><clipPath
       clipPathUnits="userSpaceOnUse"
       id="clipPath106"><path
         d="M 169.664,0 H 527 V 61 H 169.664 Z"
         id="path104"
         inkscape:connector-curvature="0" /></clipPath><clipPath
       clipPathUnits="userSpaceOnUse"
       id="clipPath116"><path
         d="M 0,0 H 527 V 61 H 0 Z"
         id="path114"
         inkscape:connector-curvature="0" /></clipPath><clipPath
       clipPathUnits="userSpaceOnUse"
       id="clipPath126"><path
         d="m 348.48,0 h 53.363 V 60.594 H 348.48 Z"
         id="path124"
         inkscape:connector-curvature="0" /></clipPath><clipPath
       clipPathUnits="userSpaceOnUse"
       id="clipPath136"><path
         d="M 0,0 H 527 V 61 H 0 Z"
         id="path134"
         inkscape:connector-curvature="0" /></clipPath><clipPath
       clipPathUnits="userSpaceOnUse"
       id="clipPath146"><path
         d="M 169.664,0 H 527 V 61 H 169.664 Z"
         id="path144"
         inkscape:connector-curvature="0" /></clipPath><clipPath
       clipPathUnits="userSpaceOnUse"
       id="clipPath156"><path
         d="M 0,0 H 527 V 61 H 0 Z"
         id="path154"
         inkscape:connector-curvature="0" /></clipPath><clipPath
       clipPathUnits="userSpaceOnUse"
       id="clipPath166"><path
         d="M 316.168,0 H 527 V 61 H 316.168 Z"
         id="path164"
         inkscape:connector-curvature="0" /></clipPath><clipPath
       clipPathUnits="userSpaceOnUse"
       id="clipPath178"><path
         d="m 0,5.5 h 124.164 v 48 H 0 Z"
         id="path176"
         inkscape:connector-curvature="0" /></clipPath><clipPath
       clipPathUnits="userSpaceOnUse"
       id="clipPath188"><path
         d="M 0,0 H 527 V 61 H 0 Z"
         id="path186"
         inkscape:connector-curvature="0" /></clipPath><clipPath
       clipPathUnits="userSpaceOnUse"
       id="clipPath198"><path
         d="M 0,5 H 125 V 53 H 0 Z"
         id="path196"
         inkscape:connector-curvature="0" /></clipPath><clipPath
       clipPathUnits="userSpaceOnUse"
       id="clipPath204"><path
         d="M 9.375,5.723 H 113.52 c 5.878,0 10.609,4.73 10.609,10.605 v 25.93 c 0,5.879 -4.731,10.609 -10.609,10.609 H 9.375 C 3.5,52.867 -1.23,48.137 -1.23,42.258 V 16.328 C -1.23,10.453 3.5,5.723 9.375,5.723 Z"
         id="path202"
         inkscape:connector-curvature="0" /></clipPath><clipPath
       clipPathUnits="userSpaceOnUse"
       id="clipPath214"><path
         d="M 0,0 H 527 V 61 H 0 Z"
         id="path212"
         inkscape:connector-curvature="0" /></clipPath><clipPath
       clipPathUnits="userSpaceOnUse"
       id="clipPath224"><path
         d="M 0,1.5 H 124.164 V 61 H 0 Z"
         id="path222"
         inkscape:connector-curvature="0" /></clipPath><clipPath
       clipPathUnits="userSpaceOnUse"
       id="clipPath234"><path
         d="M 0,0 H 527 V 61 H 0 Z"
         id="path232"
         inkscape:connector-curvature="0" /></clipPath><clipPath
       clipPathUnits="userSpaceOnUse"
       id="clipPath244"><path
         d="M 0,10.242 H 120.129 V 45.941 H 0 Z"
         id="path242"
         inkscape:connector-curvature="0" /></clipPath><clipPath
       clipPathUnits="userSpaceOnUse"
       id="clipPath254"><path
         d="M 0,0 H 527 V 61 H 0 Z"
         id="path252"
         inkscape:connector-curvature="0" /></clipPath><clipPath
       clipPathUnits="userSpaceOnUse"
       id="clipPath264"><path
         d="M 0,1.5 H 124.164 V 61 H 0 Z"
         id="path262"
         inkscape:connector-curvature="0" /></clipPath><clipPath
       clipPathUnits="userSpaceOnUse"
       id="clipPath274"><path
         d="M 0,0 H 527 V 61 H 0 Z"
         id="path272"
         inkscape:connector-curvature="0" /></clipPath><clipPath
       clipPathUnits="userSpaceOnUse"
       id="clipPath284"><path
         d="M 0,10.242 H 124.164 V 61 H 0 Z"
         id="path282"
         inkscape:connector-curvature="0" /></clipPath><clipPath
       clipPathUnits="userSpaceOnUse"
       id="clipPath294"><path
         d="M 0,0 H 527 V 61 H 0 Z"
         id="path292"
         inkscape:connector-curvature="0" /></clipPath><clipPath
       clipPathUnits="userSpaceOnUse"
       id="clipPath304"><path
         d="M 0,1.5 H 124.164 V 61 H 0 Z"
         id="path302"
         inkscape:connector-curvature="0" /></clipPath><clipPath
       clipPathUnits="userSpaceOnUse"
       id="clipPath314"><path
         d="M 0,0 H 527 V 61 H 0 Z"
         id="path312"
         inkscape:connector-curvature="0" /></clipPath><clipPath
       clipPathUnits="userSpaceOnUse"
       id="clipPath324"><path
         d="M 0,10.242 H 120.129 V 45.941 H 0 Z"
         id="path322"
         inkscape:connector-curvature="0" /></clipPath><clipPath
       clipPathUnits="userSpaceOnUse"
       id="clipPath334"><path
         d="M 0,0 H 527 V 61 H 0 Z"
         id="path332"
         inkscape:connector-curvature="0" /></clipPath><clipPath
       clipPathUnits="userSpaceOnUse"
       id="clipPath344"><path
         d="M 0,1.5 H 124.164 V 61 H 0 Z"
         id="path342"
         inkscape:connector-curvature="0" /></clipPath><clipPath
       clipPathUnits="userSpaceOnUse"
       id="clipPath354"><path
         d="M 0,0 H 527 V 61 H 0 Z"
         id="path352"
         inkscape:connector-curvature="0" /></clipPath><clipPath
       clipPathUnits="userSpaceOnUse"
       id="clipPath364"><path
         d="M 0,10.242 H 120.129 V 45.941 H 0 Z"
         id="path362"
         inkscape:connector-curvature="0" /></clipPath><clipPath
       clipPathUnits="userSpaceOnUse"
       id="clipPath374"><path
         d="M 0,0 H 527 V 61 H 0 Z"
         id="path372"
         inkscape:connector-curvature="0" /></clipPath><clipPath
       clipPathUnits="userSpaceOnUse"
       id="clipPath384"><path
         d="M 0,10.242 H 120.129 V 45.941 H 0 Z"
         id="path382"
         inkscape:connector-curvature="0" /></clipPath><clipPath
       clipPathUnits="userSpaceOnUse"
       id="clipPath396"><path
         d="M 474.664,3 H 527 v 54 h -52.336 z"
         id="path394"
         inkscape:connector-curvature="0" /></clipPath><clipPath
       clipPathUnits="userSpaceOnUse"
       id="clipPath406"><path
         d="M 0,0 H 527 V 61 H 0 Z"
         id="path404"
         inkscape:connector-curvature="0" /></clipPath><clipPath
       clipPathUnits="userSpaceOnUse"
       id="clipPath416"><path
         d="m 475,3 h 52 v 54 h -52 z"
         id="path414"
         inkscape:connector-curvature="0" /></clipPath><clipPath
       clipPathUnits="userSpaceOnUse"
       id="clipPath422"><path
         d="m 482.754,3.773 h 36.879 c 4.058,0 7.324,3.266 7.324,7.321 v 37.664 c 0,4.058 -3.266,7.324 -7.324,7.324 h -36.879 c -4.059,0 -7.324,-3.266 -7.324,-7.324 V 11.094 c 0,-4.055 3.265,-7.321 7.324,-7.321 z"
         id="path420"
         inkscape:connector-curvature="0" /></clipPath><clipPath
       clipPathUnits="userSpaceOnUse"
       id="clipPath432"><path
         d="M 0,0 H 527 V 61 H 0 Z"
         id="path430"
         inkscape:connector-curvature="0" /></clipPath><clipPath
       clipPathUnits="userSpaceOnUse"
       id="clipPath442"><path
         d="M 169.664,0 H 527 V 61 H 169.664 Z"
         id="path440"
         inkscape:connector-curvature="0" /></clipPath><clipPath
       clipPathUnits="userSpaceOnUse"
       id="clipPath452"><path
         d="M 0,0 H 527 V 61 H 0 Z"
         id="path450"
         inkscape:connector-curvature="0" /></clipPath><clipPath
       clipPathUnits="userSpaceOnUse"
       id="clipPath462"><path
         d="m 475.086,4.027 h 51.66 v 51.656 h -51.66 z"
         id="path460"
         inkscape:connector-curvature="0" /></clipPath><clipPath
       clipPathUnits="userSpaceOnUse"
       id="clipPath472"><path
         d="M 0,0 H 527 V 61 H 0 Z"
         id="path470"
         inkscape:connector-curvature="0" /></clipPath><clipPath
       clipPathUnits="userSpaceOnUse"
       id="clipPath482"><path
         d="M 169.664,0 H 527 V 61 H 169.664 Z"
         id="path480"
         inkscape:connector-curvature="0" /></clipPath><clipPath
       clipPathUnits="userSpaceOnUse"
       id="clipPath492"><path
         d="M 0,0 H 527 V 61 H 0 Z"
         id="path490"
         inkscape:connector-curvature="0" /></clipPath><clipPath
       clipPathUnits="userSpaceOnUse"
       id="clipPath502"><path
         d="M 287.195,4.027 H 527 V 61 H 287.195 Z"
         id="path500"
         inkscape:connector-curvature="0" /></clipPath><clipPath
       clipPathUnits="userSpaceOnUse"
       id="clipPath512"><path
         d="M 0,0 H 527 V 61 H 0 Z"
         id="path510"
         inkscape:connector-curvature="0" /></clipPath><clipPath
       clipPathUnits="userSpaceOnUse"
       id="clipPath522"><path
         d="M 169.664,0 H 527 V 61 H 169.664 Z"
         id="path520"
         inkscape:connector-curvature="0" /></clipPath><clipPath
       clipPathUnits="userSpaceOnUse"
       id="clipPath532"><path
         d="M 0,0 H 527 V 61 H 0 Z"
         id="path530"
         inkscape:connector-curvature="0" /></clipPath><clipPath
       clipPathUnits="userSpaceOnUse"
       id="clipPath542"><path
         d="m 475.496,4.027 h 51.25 v 51.656 h -51.25 z"
         id="path540"
         inkscape:connector-curvature="0" /></clipPath><clipPath
       clipPathUnits="userSpaceOnUse"
       id="clipPath552"><path
         d="M 0,0 H 527 V 61 H 0 Z"
         id="path550"
         inkscape:connector-curvature="0" /></clipPath><clipPath
       clipPathUnits="userSpaceOnUse"
       id="clipPath562"><path
         d="M 169.664,0 H 527 V 61 H 169.664 Z"
         id="path560"
         inkscape:connector-curvature="0" /></clipPath><clipPath
       clipPathUnits="userSpaceOnUse"
       id="clipPath572"><path
         d="M 0,0 H 527 V 61 H 0 Z"
         id="path570"
         inkscape:connector-curvature="0" /></clipPath><clipPath
       clipPathUnits="userSpaceOnUse"
       id="clipPath582"><path
         d="m 475.086,4.027 h 51.578 v 51.66 h -51.578 z"
         id="path580"
         inkscape:connector-curvature="0" /></clipPath><clipPath
       clipPathUnits="userSpaceOnUse"
       id="clipPath592"><path
         d="M 0,0 H 527 V 61 H 0 Z"
         id="path590"
         inkscape:connector-curvature="0" /></clipPath><clipPath
       clipPathUnits="userSpaceOnUse"
       id="clipPath602"><path
         d="m 475.086,4.027 h 51.66 v 51.66 h -51.66 z"
         id="path600"
         inkscape:connector-curvature="0" /></clipPath><clipPath
       clipPathUnits="userSpaceOnUse"
       id="clipPath614"><path
         d="m 169.664,8 h 118 v 41 h -118 z"
         id="path612"
         inkscape:connector-curvature="0" /></clipPath><clipPath
       clipPathUnits="userSpaceOnUse"
       id="clipPath624"><path
         d="M 0,0 H 527 V 61 H 0 Z"
         id="path622"
         inkscape:connector-curvature="0" /></clipPath><clipPath
       clipPathUnits="userSpaceOnUse"
       id="clipPath634"><path
         d="M 163,8 H 288 V 49 H 163 Z"
         id="path632"
         inkscape:connector-curvature="0" /></clipPath><clipPath
       clipPathUnits="userSpaceOnUse"
       id="clipPath640"><path
         d="m 175.676,8.273 h 99.933 c 6.649,0 12,5.352 12,12.004 v 16.45 c 0,6.648 -5.351,12 -12,12 h -99.933 c -6.649,0 -12,-5.352 -12,-12 v -16.45 c 0,-6.652 5.351,-12.004 12,-12.004 z"
         id="path638"
         inkscape:connector-curvature="0" /></clipPath><clipPath
       clipPathUnits="userSpaceOnUse"
       id="clipPath650"><path
         d="M 0,0 H 527 V 61 H 0 Z"
         id="path648"
         inkscape:connector-curvature="0" /></clipPath><clipPath
       clipPathUnits="userSpaceOnUse"
       id="clipPath660"><path
         d="M 169.664,0 H 527 V 61 H 169.664 Z"
         id="path658"
         inkscape:connector-curvature="0" /></clipPath><clipPath
       clipPathUnits="userSpaceOnUse"
       id="clipPath670"><path
         d="M 0,0 H 527 V 61 H 0 Z"
         id="path668"
         inkscape:connector-curvature="0" /></clipPath><clipPath
       clipPathUnits="userSpaceOnUse"
       id="clipPath680"><path
         d="m 169.664,11.379 h 113.34 v 35.75 h -113.34 z"
         id="path678"
         inkscape:connector-curvature="0" /></clipPath><clipPath
       clipPathUnits="userSpaceOnUse"
       id="clipPath690"><path
         d="M 0,0 H 527 V 61 H 0 Z"
         id="path688"
         inkscape:connector-curvature="0" /></clipPath><clipPath
       clipPathUnits="userSpaceOnUse"
       id="clipPath700"><path
         d="M 169.664,0 H 527 V 61 H 169.664 Z"
         id="path698"
         inkscape:connector-curvature="0" /></clipPath><clipPath
       clipPathUnits="userSpaceOnUse"
       id="clipPath710"><path
         d="M 0,0 H 527 V 61 H 0 Z"
         id="path708"
         inkscape:connector-curvature="0" /></clipPath><clipPath
       clipPathUnits="userSpaceOnUse"
       id="clipPath720"><path
         d="m 169.664,11.379 h 201 V 61 h -201 z"
         id="path718"
         inkscape:connector-curvature="0" /></clipPath><clipPath
       clipPathUnits="userSpaceOnUse"
       id="clipPath730"><path
         d="M 0,0 H 527 V 61 H 0 Z"
         id="path728"
         inkscape:connector-curvature="0" /></clipPath><clipPath
       clipPathUnits="userSpaceOnUse"
       id="clipPath740"><path
         d="M 169.664,0 H 527 V 61 H 169.664 Z"
         id="path738"
         inkscape:connector-curvature="0" /></clipPath><clipPath
       clipPathUnits="userSpaceOnUse"
       id="clipPath750"><path
         d="M 0,0 H 527 V 61 H 0 Z"
         id="path748"
         inkscape:connector-curvature="0" /></clipPath><clipPath
       clipPathUnits="userSpaceOnUse"
       id="clipPath760"><path
         d="m 169.664,11.379 h 113.34 v 35.75 h -113.34 z"
         id="path758"
         inkscape:connector-curvature="0" /></clipPath><clipPath
       clipPathUnits="userSpaceOnUse"
       id="clipPath770"><path
         d="M 0,0 H 527 V 61 H 0 Z"
         id="path768"
         inkscape:connector-curvature="0" /></clipPath><clipPath
       clipPathUnits="userSpaceOnUse"
       id="clipPath780"><path
         d="M 169.664,0 H 527 V 61 H 169.664 Z"
         id="path778"
         inkscape:connector-curvature="0" /></clipPath><clipPath
       clipPathUnits="userSpaceOnUse"
       id="clipPath790"><path
         d="M 0,0 H 527 V 61 H 0 Z"
         id="path788"
         inkscape:connector-curvature="0" /></clipPath><clipPath
       clipPathUnits="userSpaceOnUse"
       id="clipPath800"><path
         d="m 169.664,11.379 h 113.34 v 35.75 h -113.34 z"
         id="path798"
         inkscape:connector-curvature="0" /></clipPath><clipPath
       clipPathUnits="userSpaceOnUse"
       id="clipPath810"><path
         d="M 0,0 H 527 V 61 H 0 Z"
         id="path808"
         inkscape:connector-curvature="0" /></clipPath><clipPath
       clipPathUnits="userSpaceOnUse"
       id="clipPath820"><path
         d="m 169.664,11.379 h 113.34 v 35.75 h -113.34 z"
         id="path818"
         inkscape:connector-curvature="0" /></clipPath></defs><sodipodi:namedview
     id="namedview4"
     pagecolor="#505050"
     bordercolor="#eeeeee"
     borderopacity="1"
     inkscape:showpageshadow="0"
     inkscape:pageopacity="0"
     inkscape:pagecheckerboard="0"
     inkscape:deskcolor="#505050"
     showgrid="true"
     inkscape:zoom="6.2183547"
     inkscape:cx="79.920779"
     inkscape:cy="3.4176515"
     inkscape:window-width="1848"
     inkscape:window-height="1016"
     inkscape:window-x="72"
     inkscape:window-y="27"
     inkscape:window-maximized="1"
     inkscape:current-layer="g1450"
     inkscape:snap-global="false"><inkscape:page
       x="0"
       y="0"
       id="page8"
       width="877.61273"
       height="68.874664" /><inkscape:grid
       type="xygrid"
       id="grid1390"
       originx="0.040203365"
       originy="0.13284567" /></sodipodi:namedview><g
     id="g10"
     inkscape:groupmode="layer"
     inkscape:label="Page 1"
     transform="matrix(1.3333333,0,0,1.3333333,84.153202,12.026325)"><g
       id="g12" /><g
       id="g3229"
       transform="translate(-6.9100332,-13.709921)" /><g
       id="g1189"><path
         style="opacity:1;fill:#000f6b;fill-opacity:1;fill-rule:nonzero;stroke:#000f6b;stroke-width:0.13669211;stroke-linecap:square;stroke-linejoin:round;stroke-miterlimit:4;stroke-dasharray:none;stroke-dashoffset:0;stroke-opacity:1;paint-order:stroke fill markers"
         d=""
         id="path1337"
         inkscape:connector-curvature="0"
         transform="matrix(0.75000002,0,0,0.75000002,-63.08475,-8.9465927)" /><g
         id="g1450"><g
           id="g1472"
           style="stroke:none"><path
             style="opacity:1;fill:#000f6b;fill-opacity:1;fill-rule:nonzero;stroke:none;stroke-width:0.13669211;stroke-linecap:square;stroke-linejoin:round;stroke-miterlimit:4;stroke-dasharray:none;stroke-dashoffset:0;stroke-opacity:1;paint-order:stroke fill markers"
             d="m 29.792821,47.614944 c 5.295814,-0.01142 13.961691,-0.01142 19.257505,0 5.295814,0.01141 0.962875,0.02076 -9.628753,0.02076 -10.591628,0 -14.924566,-0.0093 -9.628752,-0.02076 z"
             id="path1325"
             inkscape:connector-curvature="0"
             transform="matrix(0.75000002,0,0,0.75000002,-63.08475,-8.9465927)" /><path
             style="fill:none;stroke:none;stroke-width:0.075;stroke-linecap:butt;stroke-linejoin:miter;stroke-miterlimit:4;stroke-dasharray:none;stroke-opacity:1"
             d="m -53.285132,-9.0197437 -9.829771,0.060305 0.07645,35.2682787 9.693012,-0.0338 0.03015,-1.041339 -5.909924,-0.03015 0.06031,-33.077481 5.909923,3e-7 z"
             id="path1392"
             inkscape:connector-curvature="0"
             sodipodi:nodetypes="ccccccccc" /><path
             style="fill:none;stroke:none;stroke-width:0.075;stroke-linecap:butt;stroke-linejoin:miter;stroke-miterlimit:4;stroke-dasharray:none;stroke-opacity:1"
             d="m -49.395438,-8.9594383 v 1.0751494 c 7.64849,0.5362738 8.916109,5.2684638 9.317176,11.166835 0.530827,4.3468931 0.239203,8.3450479 -0.03015,12.2118319 -1.099313,5.853011 -3.396965,9.778038 -8.985497,9.618702 l 3e-6,1.130725 c 0.739061,0.01679 1.447869,0.109206 2.261451,-0.06031 5.998564,-1.353022 9.586754,-5.13305 11.277096,-10.628815 1.302043,-4.307132 0.948137,-7.4574569 0.331679,-12.1515264 -0.364163,-3.70064111 -3.874354,-10.9940493 -11.789694,-12.3927476 z"
             id="path1394"
             inkscape:connector-curvature="0"
             sodipodi:nodetypes="ccccccccccc" /><circle
             style="opacity:1;fill:none;fill-opacity:1;fill-rule:nonzero;stroke:none;stroke-width:0.075;stroke-linecap:square;stroke-linejoin:round;stroke-miterlimit:4;stroke-dasharray:none;stroke-dashoffset:0;stroke-opacity:1;paint-order:stroke fill markers"
             id="path1396"
             cx="-26.881422"
             cy="-5.4786038"
             r="2.8570352" /><circle
             r="2.8570352"
             cy="-5.3579931"
             cx="28.11705"
             id="circle1398"
             style="opacity:1;fill:none;fill-opacity:1;fill-rule:nonzero;stroke:none;stroke-width:0.075;stroke-linecap:square;stroke-linejoin:round;stroke-miterlimit:4;stroke-dasharray:none;stroke-dashoffset:0;stroke-opacity:1;paint-order:stroke fill markers" /><path
             style="fill:none;stroke:none;stroke-width:0.075;stroke-linecap:butt;stroke-linejoin:miter;stroke-miterlimit:4;stroke-dasharray:none;stroke-opacity:1"
             d="m -32.083786,5.8002889 7.632975,2.6e-6 0.04264,19.4022545 3.411384,0.02132 0.04265,0.916809 -11.214929,10e-7 8e-6,-0.91681 3.709881,-0.04264 -0.02133,-18.4001593 -3.581954,-0.021321 z"
             id="path1400"
             inkscape:connector-curvature="0"
             sodipodi:nodetypes="ccccccccccc" /><path
             style="fill:none;stroke:none;stroke-width:0.075;stroke-linecap:butt;stroke-linejoin:miter;stroke-miterlimit:4;stroke-dasharray:none;stroke-opacity:1"
             d="m -18.885989,25.223863 3.560634,-0.04264 -0.08528,-33.0477956 -3.49667,-0.021321 -5e-6,-1.0873791 7.54769,0.042642 -0.04264,18.3788395 c 1.8623219,-2.0059122 1.6282818,-4.3650182 8.4285469,-3.9444148 2.68670656,0.5709321 4.3869028,1.92411 5.8419969,4.861225 1.5490103,3.98003 1.907114,7.988206 -0.283863,11.918527 -1.0309972,1.59733 -2.3545746,3.024448 -4.3921586,3.923093 -1.7261198,0.872524 -4.4003109,0.883891 -5.7055619,0.26511 -2.1834238,-1.035097 -2.7702203,-1.830944 -3.9529243,-3.889706 l 2e-6,3.560632 -7.462406,10e-7 z"
             id="path1402"
             inkscape:connector-curvature="0"
             sodipodi:nodetypes="cccccccccccscccc" /><path
             style="fill:none;stroke:none;stroke-width:0.075;stroke-linecap:butt;stroke-linejoin:miter;stroke-miterlimit:4;stroke-dasharray:none;stroke-opacity:1"
             d="m 4.8018176,26.119352 11.0921774,0.08529 0.08011,-1.023416 -3.665096,-0.03533 -0.170565,-10.447367 c -0.07583,-0.606439 0.660686,-4.585541 3.558488,-7.3204734 0.370626,-0.4085744 1.263485,-0.112199 1.513806,0.4903866 -0.0542,0.696491 -0.181746,0.9239166 0.04264,1.6204076 0.320814,1.4546722 2.900582,2.1580762 3.560631,0.1705695 C 21.135001,8.7566137 21.391566,7.9918208 20.728728,6.3333175 20.080318,5.2967451 17.204673,4.9572142 15.59033,5.9495372 13.746874,7.2210113 13.243557,9.1978224 12.413474,11.002651 L 12.39219,5.8002889 4.7165713,5.778965 l 0.021324,0.9594527 3.6672393,-2e-7 -0.021321,18.4428025 -3.5819546,-8e-6 z"
             id="path1404"
             inkscape:connector-curvature="0"
             sodipodi:nodetypes="ccccccccccccccccccc" /><path
             style="fill:none;stroke:none;stroke-width:0.075;stroke-linecap:butt;stroke-linejoin:miter;stroke-miterlimit:4;stroke-dasharray:none;stroke-opacity:1"
             d="m 22.967443,6.7597411 4.2e-5,-0.9381314 7.632976,0.042645 0.04264,19.3596113 3.496673,0.02133 0.02132,0.91681 -11.278894,-5e-6 0.02133,-0.91681 h 3.603272 L 26.442842,6.7810684 Z"
             id="path1406"
             inkscape:connector-curvature="0"
             sodipodi:nodetypes="ccccccccccc" /><path
             style="fill:none;stroke:none;stroke-width:0.075;stroke-linecap:butt;stroke-linejoin:miter;stroke-miterlimit:4;stroke-dasharray:none;stroke-opacity:1"
             d="m 36.996768,18.656947 c -0.455153,-0.702079 -1.085991,-0.58865 -1.066058,-0.08528 l -0.03747,7.40986 c 0.176921,0.480057 0.430732,0.463499 0.847672,0.0099 0.562958,-0.61551 0.559786,-0.812268 0.66979,-1.2013 0.132825,-0.378839 0.419336,-0.531225 0.852848,0.01293 1.292959,1.300384 3.119621,1.86028 5.172207,2.041214 2.065684,0.200097 4.724262,-0.691305 6.268418,-4.093663 0.835725,-2.581695 1.101268,-5.291583 -1.058299,-7.713529 -2.934737,-2.330518 -6.027408,-1.796154 -8.90751,-2.859622 -1.195355,-0.476735 -1.971537,-1.252035 -1.745305,-2.9242132 0.02889,-0.8483523 0.882803,-1.9682925 3.182653,-2.7919998 1.567431,-0.2886194 3.073263,0.018216 4.520085,0.895488 1.163041,0.8784737 2.224861,1.904177 2.515898,4.05102 0.115175,0.44746 1.117407,0.304335 1.103527,0.01508 L 49.277755,5.6510409 C 49.00699,5.2049645 48.707694,5.2153807 48.396897,5.4098195 L 47.79303,7.316678 C 45.686736,5.5526952 43.67227,5.0784202 41.885559,5.231934 c -1.760028,0.1432211 -3.751767,1.1005029 -4.974074,3.0629305 -1.292707,3.0055175 -0.831507,6.2001905 0.72492,7.7182595 1.355762,1.427539 4.496465,2.042812 6.606971,2.219987 1.961137,0.433021 4.070992,0.692683 4.394742,3.152945 -0.680678,3.359268 -2.631683,4.266511 -5.031795,4.306873 -5.026855,-0.292926 -5.616977,-3.885931 -6.609555,-7.035982 z"
             id="path1408"
             inkscape:connector-curvature="0"
             sodipodi:nodetypes="ccccccccccccccccccccccccc" /><path
             style="fill:none;stroke:none;stroke-width:0.075;stroke-linecap:butt;stroke-linejoin:miter;stroke-miterlimit:4;stroke-dasharray:none;stroke-opacity:1"
             d="m -1.0828221,8.891857 c 0.6613833,0.8580137 0.72539331,11.999898 0.0852848,13.304403 -2.024478,4.862505 -5.3449493,4.493932 -8.272609,1.535123 C -11.41769,21.802166 -12.361922,13.933942 -10.208278,9.5741335 -8.0704866,6.0485846 -4.2169134,4.7353498 -1.0828221,8.891857 Z"
             id="path1410"
             inkscape:connector-curvature="0"
             sodipodi:nodetypes="ccccc" /><path
             style="opacity:1;fill:#f0181f;fill-opacity:1;fill-rule:nonzero;stroke:none;stroke-width:0.01608142;stroke-linecap:square;stroke-linejoin:round;stroke-miterlimit:4;stroke-dasharray:none;stroke-dashoffset:0;stroke-opacity:1;paint-order:stroke fill markers"
             d="M 0.1720874,37.560965 C 0.1134582,32.453103 0.06542025,21.923791 0.0653364,14.162493 L 0.06518396,0.0510436 H 6.4977536 12.930323 V 0.69430057 1.3375575 H 8.9898062 5.0492891 l 0.040772,22.1521615 0.040772,22.152162 3.8997453,0.04306 3.8997456,0.04306 v 0.55999 0.559991 H 6.6045047 0.27868595 Z"
             id="path1412"
             inkscape:connector-curvature="0"
             transform="matrix(0.75000002,0,0,0.75000002,-63.08475,-8.9465927)" /><path
             style="opacity:1;fill:#f0181f;fill-opacity:1;fill-rule:nonzero;stroke:none;stroke-width:0.01608142;stroke-linecap:square;stroke-linejoin:round;stroke-miterlimit:4;stroke-dasharray:none;stroke-dashoffset:0;stroke-opacity:1;paint-order:stroke fill markers"
             d="m 18.719636,46.245616 v -0.63978 l 1.24631,-0.1117 c 2.866558,-0.256917 4.529137,-1.002527 6.390289,-2.865829 1.156747,-1.158082 1.442516,-1.565536 2.228749,-3.177774 1.352742,-2.773917 1.999241,-5.301025 2.283292,-8.925191 C 31.417952,23.51211 30.985727,14.541794 29.889996,10.222295 28.988995,6.6704423 27.091676,4.1335214 24.348134,2.8122248 22.976328,2.1515592 21.047147,1.6131237 19.322689,1.4096203 L 18.398008,1.3004984 V 0.65635754 0.01221664 l 1.969974,0.07709572 c 1.567296,0.06133674 2.249384,0.16783933 3.336895,0.52102962 4.679017,1.51960052 8.344616,4.56698592 10.979373,9.12766842 2.124373,3.6772286 2.910842,7.6721616 2.920946,14.8372046 0.0055,3.861166 -0.01235,4.096767 -0.449201,5.950127 -1.682675,7.138709 -5.289373,11.972196 -10.920937,14.635603 -2.168449,1.025553 -4.081065,1.55527 -5.947483,1.647212 l -1.567939,0.07724 z"
             id="path1414"
             inkscape:connector-curvature="0"
             transform="matrix(0.75000002,0,0,0.75000002,-63.08475,-8.9465927)" /><path
             style="opacity:1;fill:#959595;fill-opacity:1;fill-rule:nonzero;stroke:none;stroke-width:0.01608142;stroke-linecap:square;stroke-linejoin:round;stroke-miterlimit:4;stroke-dasharray:none;stroke-dashoffset:0;stroke-opacity:1;paint-order:stroke fill markers"
             d="m 46.89469,8.0839174 c -2.230497,-0.8950726 -2.997897,-3.969431 -1.457341,-5.8383936 1.006377,-1.2209093 3.033299,-1.6461454 4.435854,-0.9306154 2.80737,1.4322131 2.715468,5.4903263 -0.151457,6.6879093 -0.651367,0.2720917 -2.237707,0.317599 -2.827056,0.0811 z"
             id="path1416"
             inkscape:connector-curvature="0"
             transform="matrix(0.75000002,0,0,0.75000002,-63.08475,-8.9465927)" /><path
             style="opacity:1;fill:#959595;fill-opacity:1;fill-rule:nonzero;stroke:none;stroke-width:0.01608142;stroke-linecap:square;stroke-linejoin:round;stroke-miterlimit:4;stroke-dasharray:none;stroke-dashoffset:0;stroke-opacity:1;paint-order:stroke fill markers"
             d="m 41.394444,46.204731 c 0,-0.474679 0.01359,-0.482456 0.844275,-0.483274 0.464351,-4.83e-4 1.549847,-0.04756 2.412213,-0.104663 l 1.567939,-0.10383 V 33.154523 20.796081 h -2.412213 -2.412214 v -0.482443 -0.482443 h 4.985242 4.985241 v 8.818697 c 0,4.850284 0.04779,10.67578 0.106191,12.945547 l 0.10619,4.126849 h 2.225616 2.225616 v 0.482443 0.482443 h -7.317048 -7.317048 z"
             id="path1418"
             inkscape:connector-curvature="0"
             transform="matrix(0.75000002,0,0,0.75000002,-63.08475,-8.9465927)" /><path
             style="opacity:1;fill:#959595;fill-opacity:1;fill-rule:nonzero;stroke:none;stroke-width:0.01608142;stroke-linecap:square;stroke-linejoin:round;stroke-miterlimit:4;stroke-dasharray:none;stroke-dashoffset:0;stroke-opacity:1;paint-order:stroke fill markers"
             d="m 75.010059,47.394653 c -2.131662,-0.572876 -4.196494,-2.23094 -5.483764,-4.403471 l -0.713023,-1.20337 -0.04439,2.44968 -0.04439,2.449682 h -4.917851 c -4.418368,0 -4.907937,-0.02584 -4.820239,-0.254375 0.05369,-0.139905 0.09761,-0.357004 0.09761,-0.482442 0,-0.164756 0.212053,-0.2283 0.763867,-0.2289 0.420128,-4.83e-4 1.46944,-0.04756 2.331807,-0.104663 l 1.567939,-0.10383 V 23.425262 1.3375575 h -2.331807 -2.331806 v -0.64561497 -0.645615 l 4.86463,0.0425616 4.864631,0.04256159 -0.02636,12.26208628 c -0.0145,6.744147 0.02939,12.262086 0.09753,12.262086 0.06814,0 0.441834,-0.443959 0.83043,-0.986576 2.576501,-3.597698 3.520195,-4.123868 7.675012,-4.279311 2.590042,-0.0969 3.522662,0.04495 5.162575,0.785217 3.273776,1.477803 5.464698,4.768516 6.565494,9.861212 0.43405,2.008076 0.385566,5.857245 -0.0963,7.645411 -0.782189,2.902643 -2.344327,5.455167 -4.405975,7.199342 -1.28183,1.084439 -3.523389,2.242254 -4.909939,2.53609 -1.379383,0.292317 -3.563486,0.28192 -4.695683,-0.02236 z m 4.357444,-1.393149 c 1.935073,-1.001725 3.511335,-3.542825 3.864109,-6.229343 0.256089,-1.950226 0.253792,-11.54452 -0.0033,-13.718767 -0.238392,-2.016229 -0.409761,-2.402878 -1.586566,-3.579683 -3.012198,-3.012199 -6.506554,-2.97759 -9.555354,0.09464 -1.943942,1.958873 -2.808602,4.169969 -3.205957,8.198215 -0.40055,4.060641 0.482708,9.492234 1.909114,11.740083 0.913642,1.439792 3.439338,3.393043 4.995782,3.863493 0.233957,0.07072 0.907527,0.134794 1.496823,0.142397 0.911143,0.01176 1.223136,-0.0647 2.08533,-0.511033 z"
             id="path1420"
             inkscape:connector-curvature="0"
             transform="matrix(0.75000002,0,0,0.75000002,-63.08475,-8.9465927)" /><path
             style="opacity:1;fill:#959595;fill-opacity:1;fill-rule:nonzero;stroke:none;stroke-width:0.01608142;stroke-linecap:square;stroke-linejoin:round;stroke-miterlimit:4;stroke-dasharray:none;stroke-dashoffset:0;stroke-opacity:1;paint-order:stroke fill markers"
             d="m 90.603602,46.124324 v -0.56285 h 2.412214 2.412213 V 33.178777 20.796081 h -2.393466 -2.393466 l -0.08678,-0.442239 c -0.04773,-0.243232 -0.03808,-0.478423 0.02146,-0.522647 0.05953,-0.04422 2.333507,-0.0584 5.053278,-0.03151 l 4.945045,0.0489 v 3.368406 c 0,1.852623 0.0543,3.368134 0.12061,3.367803 0.0663,-3.38e-4 0.25749,-0.344072 0.42479,-0.763868 0.90618,-2.273851 1.74504,-3.768299 2.67056,-4.757681 1.36522,-1.459433 2.15595,-1.78554 4.3423,-1.790819 1.48429,-0.0036 1.78582,0.04456 2.49263,0.397958 0.97636,0.488184 1.37015,1.186971 1.48663,2.638114 0.10839,1.350295 -0.28936,2.70975 -1.00104,3.421426 -0.47402,0.474029 -0.63208,0.533844 -1.41062,0.533844 -1.6766,0 -2.63227,-1.083503 -2.58551,-2.931355 0.0258,-1.019648 -3.2e-4,-1.105359 -0.45458,-1.487532 -0.78636,-0.661684 -1.34566,-0.553477 -2.26773,0.438735 -1.48573,1.598761 -2.75147,3.771295 -3.58373,6.151144 -0.41268,1.180067 -0.45575,1.526019 -0.52051,4.181171 -0.0388,1.592061 -0.0182,5.156106 0.0459,7.920101 l 0.11652,5.025445 h 2.39369 2.39369 v 0.56285 0.56285 H 97.920648 90.6036 Z"
             id="path1422"
             inkscape:connector-curvature="0"
             transform="matrix(0.75000002,0,0,0.75000002,-63.08475,-8.9465927)" /><path
             style="opacity:1;fill:#959595;fill-opacity:1;fill-rule:nonzero;stroke:none;stroke-width:0.01608142;stroke-linecap:square;stroke-linejoin:round;stroke-miterlimit:4;stroke-dasharray:none;stroke-dashoffset:0;stroke-opacity:1;paint-order:stroke fill markers"
             d="m 114.72574,46.204731 v -0.482443 h 2.4132 2.41321 l -0.0412,-12.4229 -0.0412,-12.4229 -2.2916,-0.04462 -2.29161,-0.04462 v -0.478027 -0.478028 h 4.98524 4.98525 V 32.77674 45.722286 h 2.3318 2.33181 v 0.482443 0.482443 h -7.39746 -7.39745 z"
             id="path1424"
             inkscape:connector-curvature="0"
             transform="matrix(0.75000002,0,0,0.75000002,-63.08475,-8.9465927)" /><path
             style="opacity:1;fill:#959595;fill-opacity:1;fill-rule:nonzero;stroke:none;stroke-width:0.01608142;stroke-linecap:square;stroke-linejoin:round;stroke-miterlimit:4;stroke-dasharray:none;stroke-dashoffset:0;stroke-opacity:1;paint-order:stroke fill markers"
             d="m 120.22598,8.2447317 c -2.23049,-0.8950726 -2.99789,-3.969431 -1.45734,-5.8383936 1.00638,-1.2209093 3.0333,-1.64614546 4.43586,-0.9306155 2.80737,1.4322132 2.71547,5.4903263 -0.15146,6.6879093 -0.65137,0.2720918 -2.23771,0.317599 -2.82706,0.0811 z"
             id="path1426"
             inkscape:connector-curvature="0"
             transform="matrix(0.75000002,0,0,0.75000002,-63.08475,-8.9465927)" /><path
             style="opacity:1;fill:#959595;fill-opacity:1;fill-rule:nonzero;stroke:none;stroke-width:0.01608142;stroke-linecap:square;stroke-linejoin:round;stroke-miterlimit:4;stroke-dasharray:none;stroke-dashoffset:0;stroke-opacity:1;paint-order:stroke fill markers"
             d="m 140.86431,47.473177 c -2.19968,-0.320467 -4.00793,-1.098502 -5.34317,-2.298997 -1.09263,-0.982366 -1.46559,-0.957731 -1.72178,0.113725 -0.15399,0.644064 -1.10469,1.639987 -1.44196,1.510563 -0.24394,-0.09361 -0.26435,-0.572003 -0.22575,-5.291209 0.0367,-4.490901 0.0753,-5.194616 0.28677,-5.235302 0.51685,-0.09943 0.83118,0.439692 1.61209,2.765011 0.93624,2.78785 1.51018,3.874255 2.65239,5.020708 1.42362,1.428891 3.32382,2.159899 5.64662,2.17225 3.2575,0.01732 5.30007,-1.398523 6.33677,-4.392439 0.36816,-1.063229 0.41469,-1.375246 0.29037,-1.947145 -0.19054,-0.876566 -0.86213,-1.841363 -1.67053,-2.399879 -0.82454,-0.569664 -2.92338,-1.164948 -5.23745,-1.485473 -6.2737,-0.868978 -8.7678,-2.651365 -9.4867,-6.779588 -0.34013,-1.953153 0.13229,-4.851605 1.04445,-6.408093 0.55396,-0.94526 2.09897,-2.334271 3.1859,-2.864236 3.19019,-1.555456 6.71886,-1.180448 9.97721,1.060321 0.59788,0.411165 1.11248,0.747572 1.14356,0.747572 0.0311,0 0.2201,-0.574571 0.42006,-1.276824 0.38682,-1.358547 0.65953,-1.640163 1.15451,-1.192219 0.28086,0.254182 0.29827,0.533573 0.25817,4.144844 l -0.043,3.872291 h -0.5406 c -0.53496,0 -0.54425,-0.01267 -0.89103,-1.214955 -0.46127,-1.599249 -1.00026,-2.485234 -2.17167,-3.569753 -1.65958,-1.53648 -3.76439,-2.304961 -5.96431,-2.17761 -1.95649,0.113259 -4.24432,1.363717 -5.06868,2.770376 -0.52628,0.898032 -0.56134,2.521279 -0.075,3.474505 0.65734,1.288487 2.00276,1.855632 6.2888,2.650961 5.99421,1.112298 8.07158,2.37909 9.31725,5.681702 0.65417,1.734375 0.57552,4.465172 -0.19632,6.816321 -0.66032,2.011418 -2.43893,4.156916 -4.17564,5.036975 -1.60868,0.815179 -3.15944,1.016382 -5.36129,0.695597 z"
             id="path1428"
             inkscape:connector-curvature="0"
             transform="matrix(0.75000002,0,0,0.75000002,-63.08475,-8.9465927)" /></g></g></g></g></svg>