<svg xmlns="http://www.w3.org/2000/svg" width="406.86" height="100" viewBox="0 0 406.86 100"><title>iit-hhcm-logo-2</title><path d="M114.68.89H36.53a9.94,9.94,0,0,0-9.91,9.91V87.17h88.06a9.94,9.94,0,0,0,9.91-9.91V10.8A9.94,9.94,0,0,0,114.68.89Z" transform="translate(-1.05 -0.89)" fill="#0072af"/><path d="M89.12.89H11A9.94,9.94,0,0,0,1.05,10.8V87.17H89.12A9.94,9.94,0,0,0,99,77.26V10.8A9.94,9.94,0,0,0,89.12.89Z" transform="translate(-1.05 -0.89)" fill="#3c3d43"/><path d="M25.13,18.15a6.84,6.84,0,0,1-2,5,6.66,6.66,0,0,1-4.9,2,6.69,6.69,0,0,1-4.88-2,6.82,6.82,0,0,1-2-5,6.95,6.95,0,0,1,6.92-7,6.66,6.66,0,0,1,4.9,2A6.73,6.73,0,0,1,25.13,18.15Zm-.37,58.31H11.62V28.76H24.76Z" transform="translate(-1.05 -0.89)" fill="#fff"/><path d="M50.27,18.15a6.88,6.88,0,0,1-2,5,6.92,6.92,0,0,1-9.79,0,6.82,6.82,0,0,1-2-5,6.93,6.93,0,1,1,13.85,0ZM49.9,76.46H36.75V28.76H49.9Z" transform="translate(-1.05 -0.89)" fill="#fff"/><path d="M88.59,37H76.06V61.46c0,2.48.41,4.31,1.24,5.47s2.41,1.74,4.78,1.74a19.09,19.09,0,0,0,3.25-.27,21.89,21.89,0,0,0,2.89-.69v7.46a21.3,21.3,0,0,1-5.17,1.29,44.53,44.53,0,0,1-6,.41q-6.51,0-10.3-4.2T62.92,60.59V36.92H57.27V30.13l6.14-.33,4.41-15.88h8.24v15.8H88.59Z" transform="translate(-1.05 -0.89)" fill="#fff"/><path d="M137.39,28.2V13.88h3V28.2Z" transform="translate(-1.05 -0.89)" fill="#3c3d43"/><path d="M147.78,28.42a8,8,0,0,1-4.57-1.35l1.16-2.15A5.88,5.88,0,0,0,147.65,26c1,0,2.21-.39,2.21-1.48,0-1.89-3.47-2.21-5.21-4.19a3.7,3.7,0,0,1-.91-2.54c0-2.18,1.71-4.09,4.86-4.09a7.34,7.34,0,0,1,3.61.87l0,2.56a7.08,7.08,0,0,0-3.42-1c-1.06,0-1.89.48-1.89,1.31,0,2.47,6.15,2.26,6.15,6.75C153,26.79,150.71,28.42,147.78,28.42Z" transform="translate(-1.05 -0.89)" fill="#3c3d43"/><path d="M165.77,16.32h-3.85V28.2h-3V16.32h-4.19V13.88h11.71Z" transform="translate(-1.05 -0.89)" fill="#3c3d43"/><path d="M168.64,28.2V13.88h3V28.2Z" transform="translate(-1.05 -0.89)" fill="#3c3d43"/><path d="M185.11,16.32h-3.85V28.2h-3V16.32h-4.19V13.88h11.71Z" transform="translate(-1.05 -0.89)" fill="#3c3d43"/><path d="M198.86,26.77a8,8,0,0,1-9.47.17,5.44,5.44,0,0,1-1.41-4v-9h3v8.8a3.45,3.45,0,0,0,.8,2.35,3.8,3.8,0,0,0,4.89,0,3.1,3.1,0,0,0,.72-2.22V13.88h3v8.74A5.68,5.68,0,0,1,198.86,26.77Z" transform="translate(-1.05 -0.89)" fill="#3c3d43"/><path d="M213.83,16.32H210V28.2h-3V16.32H202.8V13.88h11.71Z" transform="translate(-1.05 -0.89)" fill="#3c3d43"/><path d="M227.8,26.29a8.1,8.1,0,0,1-10.49.39A7.17,7.17,0,0,1,215,21.21a7.56,7.56,0,0,1,2.06-5.35,7.33,7.33,0,0,1,5.32-2.13A7.44,7.44,0,0,1,228,16,7.39,7.39,0,0,1,229.8,21,7.32,7.32,0,0,1,227.8,26.29Zm-5.39-10.12c-2.47,0-4.28,1.8-4.28,4.93S219.94,26,222.41,26s4.24-1.8,4.24-4.93S224.89,16.17,222.41,16.17Z" transform="translate(-1.05 -0.89)" fill="#3c3d43"/><path d="M238.67,28.2V13.88h3V28.2Z" transform="translate(-1.05 -0.89)" fill="#3c3d43"/><path d="M254.92,16.32h-3.85V28.2h-3V16.32h-4.2V13.88h11.71Z" transform="translate(-1.05 -0.89)" fill="#3c3d43"/><path d="M265.07,28.2l-1.39-3.5h-4.87l-1.32,3.5h-2.94l5.61-14.38h2.26l5.84,14.38Zm-3.28-8.67a13.42,13.42,0,0,1-.52-1.76h0a10.29,10.29,0,0,1-.52,1.72l-1.06,2.82h3.11Z" transform="translate(-1.05 -0.89)" fill="#3c3d43"/><path d="M270.35,28.2V13.88h2.95V25.75h5V28.2Z" transform="translate(-1.05 -0.89)" fill="#3c3d43"/><path d="M280.47,28.2V13.88h3V28.2Z" transform="translate(-1.05 -0.89)" fill="#3c3d43"/><path d="M296.05,28.2l-1.39-3.5H289.8l-1.33,3.5h-2.93l5.6-14.38h2.26l5.85,14.38Zm-3.28-8.67a15.19,15.19,0,0,1-.52-1.76h0a11.34,11.34,0,0,1-.52,1.72l-1.07,2.82h3.11Z" transform="translate(-1.05 -0.89)" fill="#3c3d43"/><path d="M311.87,28.2l-6.21-7.95c-.55-.7-.94-1.26-1.37-1.89h0c0,.48,0,1.35,0,2V28.2h-3V13.88h3l6,7.65c.56.72,1,1.28,1.35,1.87h0c0-.67,0-1.61,0-2.22v-7.3h2.95V28.2Z" transform="translate(-1.05 -0.89)" fill="#3c3d43"/><path d="M330.1,26.29a8.1,8.1,0,0,1-10.49.39,7.17,7.17,0,0,1-2.28-5.47,7.56,7.56,0,0,1,2.06-5.35,7.31,7.31,0,0,1,5.32-2.13A7.44,7.44,0,0,1,330.3,16,7.39,7.39,0,0,1,332.1,21,7.32,7.32,0,0,1,330.1,26.29Zm-5.39-10.12c-2.47,0-4.28,1.8-4.28,4.93S322.24,26,324.71,26,329,24.23,329,21.1,327.19,16.17,324.71,16.17Z" transform="translate(-1.05 -0.89)" fill="#3c3d43"/><path d="M141.89,52.36h-4.5V38h4.76c5.11,0,8,2.76,8,7S146.84,52.36,141.89,52.36ZM142,40.52h-1.58V49.9H142c3.54,0,4.93-2.23,4.93-4.73C146.93,42.34,145.23,40.52,142,40.52Z" transform="translate(-1.05 -0.89)" fill="#3c3d43"/><path d="M152.82,52.36V38h3V52.36Z" transform="translate(-1.05 -0.89)" fill="#3c3d43"/><path d="M173.63,40.48h-3.85V52.36h-3V40.48h-4.2V38H174.3Z" transform="translate(-1.05 -0.89)" fill="#3c3d43"/><path d="M176.28,52.36V38h8.3l-.78,2.44h-4.54v3.34h4.56v2.46h-4.56v3.65h5.3v2.43Z" transform="translate(-1.05 -0.89)" fill="#3c3d43"/><path d="M194,52.58a6.89,6.89,0,0,1-7.32-7.24c0-4.1,3.09-7.45,8-7.45a8.47,8.47,0,0,1,3.73.76l0,2.65a6.93,6.93,0,0,0-3.59-1A4.54,4.54,0,0,0,190,45.13c0,2.73,1.76,4.88,4.58,4.88a7.28,7.28,0,0,0,3.57-1l.8,2.08A9,9,0,0,1,194,52.58Z" transform="translate(-1.05 -0.89)" fill="#3c3d43"/><path d="M211.92,52.36l-6.22-8c-.54-.7-.93-1.26-1.37-1.89h0c0,.48,0,1.34,0,2v7.84h-3V38h3l6,7.65c.57.72,1,1.28,1.35,1.87h0c0-.68,0-1.61,0-2.22V38h3V52.36Z" transform="translate(-1.05 -0.89)" fill="#3c3d43"/><path d="M230.15,50.45a8.11,8.11,0,0,1-10.5.39,7.22,7.22,0,0,1-2.28-5.48A7.51,7.51,0,0,1,219.44,40a7.26,7.26,0,0,1,5.32-2.13,7.47,7.47,0,0,1,5.39,12.56Zm-5.39-10.13c-2.48,0-4.28,1.81-4.28,4.94s1.8,4.93,4.28,4.93S229,48.38,229,45.26,227.24,40.32,224.76,40.32Z" transform="translate(-1.05 -0.89)" fill="#3c3d43"/><path d="M234.84,52.36V38h3V49.9h5v2.46Z" transform="translate(-1.05 -0.89)" fill="#3c3d43"/><path d="M257.13,50.45a8.1,8.1,0,0,1-10.49.39,7.19,7.19,0,0,1-2.28-5.48A7.55,7.55,0,0,1,246.42,40a7.3,7.3,0,0,1,5.33-2.13,6.9,6.9,0,0,1,7.38,7.3A7.35,7.35,0,0,1,257.13,50.45Zm-5.38-10.13c-2.48,0-4.28,1.81-4.28,4.94s1.8,4.93,4.28,4.93S256,48.38,256,45.26,254.22,40.32,251.75,40.32Z" transform="translate(-1.05 -0.89)" fill="#3c3d43"/><path d="M268.48,52.58a6.92,6.92,0,0,1-7.26-7.24c0-4.17,3.24-7.45,8.13-7.45a12.52,12.52,0,0,1,4.3.72l0,2.69a8.28,8.28,0,0,0-3.88-1c-3.81,0-5.26,2.3-5.26,4.83a4.74,4.74,0,0,0,4.78,5.06,5.77,5.77,0,0,0,2.11-.35V45h3v6.13A12.36,12.36,0,0,1,268.48,52.58Z" transform="translate(-1.05 -0.89)" fill="#3c3d43"/><path d="M277.39,52.36V38h3V52.36Z" transform="translate(-1.05 -0.89)" fill="#3c3d43"/><path d="M293,52.36l-1.39-3.5h-4.87l-1.33,3.5h-2.93L288.06,38h2.26l5.84,14.38Zm-3.29-8.67a18.28,18.28,0,0,1-.52-1.76h0a11.34,11.34,0,0,1-.52,1.72l-1.06,2.82h3.1Z" transform="translate(-1.05 -0.89)" fill="#3c3d43"/><path d="M147,76.52v-6h-6.62v6h-3V62.2h3V68H147V62.2h3V76.52Z" transform="translate(-1.05 -0.89)" fill="#0072af"/><path d="M164.16,75.08a7.93,7.93,0,0,1-9.47.18,5.47,5.47,0,0,1-1.42-4v-9h3V71a3.49,3.49,0,0,0,.8,2.35,3.8,3.8,0,0,0,4.89,0,3.13,3.13,0,0,0,.72-2.22V62.2h3v8.73A5.66,5.66,0,0,1,164.16,75.08Z" transform="translate(-1.05 -0.89)" fill="#0072af"/><path d="M180.7,76.52V68.61c0-.52,0-1,0-1.54h0a14.41,14.41,0,0,1-.89,1.5l-2.66,4.06h-1.36l-3-4.17a9.86,9.86,0,0,1-.91-1.39h0c0,.54,0,1,0,1.45v8h-3V62.2h2.74l3.76,5.37a15.89,15.89,0,0,1,1,1.6h0a14.19,14.19,0,0,1,1-1.69l3.43-5.28h2.74V76.52Z" transform="translate(-1.05 -0.89)" fill="#0072af"/><path d="M196.25,76.52,194.86,73H190l-1.33,3.5h-2.93l5.6-14.39h2.26l5.85,14.39ZM193,67.85a15.78,15.78,0,0,1-.52-1.76h0a11.69,11.69,0,0,1-.52,1.72l-1.07,2.82H194Z" transform="translate(-1.05 -0.89)" fill="#0072af"/><path d="M212.07,76.52l-6.21-8c-.54-.7-.94-1.26-1.37-1.89h0c0,.47,0,1.34,0,2v7.85h-3V62.2h3l6,7.65c.57.71,1,1.28,1.35,1.87h0c0-.68,0-1.61,0-2.22V62.2h3V76.52Z" transform="translate(-1.05 -0.89)" fill="#0072af"/><path d="M230.3,74.61a8.1,8.1,0,0,1-10.49.39,7.19,7.19,0,0,1-2.28-5.48,7.51,7.51,0,0,1,2.06-5.34,7.3,7.3,0,0,1,5.33-2.13,6.89,6.89,0,0,1,7.38,7.3A7.35,7.35,0,0,1,230.3,74.61Zm-5.38-10.13c-2.48,0-4.28,1.8-4.28,4.93s1.8,4.94,4.28,4.94,4.23-1.81,4.23-4.94S227.39,64.48,224.92,64.48Z" transform="translate(-1.05 -0.89)" fill="#0072af"/><path d="M235,76.52V62.2h3V76.52Z" transform="translate(-1.05 -0.89)" fill="#0072af"/><path d="M245.78,76.52h-4.5V62.2H246c5.1,0,8,2.76,8,7S250.73,76.52,245.78,76.52Zm.06-11.84h-1.59v9.38h1.63c3.55,0,4.94-2.24,4.94-4.73C250.82,66.5,249.12,64.68,245.84,64.68Z" transform="translate(-1.05 -0.89)" fill="#0072af"/><path d="M260.59,76.74A8.09,8.09,0,0,1,256,75.39l1.15-2.15a6,6,0,0,0,3.28,1.11c1.05,0,2.22-.4,2.22-1.48,0-1.89-3.48-2.22-5.21-4.2a3.68,3.68,0,0,1-.92-2.54c0-2.17,1.72-4.08,4.87-4.08a7.34,7.34,0,0,1,3.61.87l0,2.56a7,7,0,0,0-3.41-1c-1.06,0-1.89.48-1.89,1.3,0,2.48,6.15,2.26,6.15,6.76C265.83,75.11,263.53,76.74,260.59,76.74Z" transform="translate(-1.05 -0.89)" fill="#0072af"/><path d="M282.25,76.52,280.86,73H276l-1.33,3.5h-2.93l5.6-14.39h2.26l5.85,14.39ZM279,67.85a15.78,15.78,0,0,1-.52-1.76h0a11.69,11.69,0,0,1-.52,1.72l-1.07,2.82H280Z" transform="translate(-1.05 -0.89)" fill="#0072af"/><path d="M298.07,76.52l-6.21-8c-.55-.7-.94-1.26-1.37-1.89h0c0,.47,0,1.34,0,2v7.85h-3V62.2h3l6,7.65c.56.71,1,1.28,1.35,1.87h0c0-.68,0-1.61,0-2.22V62.2h2.95V76.52Z" transform="translate(-1.05 -0.89)" fill="#0072af"/><path d="M308.63,76.52h-4.49V62.2h4.75c5.11,0,8,2.76,8,7S313.59,76.52,308.63,76.52Zm.07-11.84h-1.59v9.38h1.63c3.54,0,4.93-2.24,4.93-4.73C313.67,66.5,312,64.68,308.7,64.68Z" transform="translate(-1.05 -0.89)" fill="#0072af"/><path d="M334.9,76.52v-6h-6.62v6h-3V62.2h3V68h6.62V62.2h3V76.52Z" transform="translate(-1.05 -0.89)" fill="#0072af"/><path d="M352.07,75.08a7.93,7.93,0,0,1-9.47.18,5.47,5.47,0,0,1-1.42-4v-9h3V71a3.44,3.44,0,0,0,.8,2.35,3.17,3.17,0,0,0,2.39.89,3.2,3.2,0,0,0,2.5-.89,3.13,3.13,0,0,0,.72-2.22V62.2h3v8.73A5.66,5.66,0,0,1,352.07,75.08Z" transform="translate(-1.05 -0.89)" fill="#0072af"/><path d="M368.6,76.52V68.61c0-.52,0-1,0-1.54h0a11.59,11.59,0,0,1-.89,1.5l-2.65,4.06h-1.37l-2.95-4.17a9.86,9.86,0,0,1-.91-1.39h-.05c0,.54,0,1,0,1.45v8h-3V62.2h2.74l3.76,5.37a15.89,15.89,0,0,1,1,1.6h0a12.93,12.93,0,0,1,1-1.69l3.43-5.28h2.74V76.52Z" transform="translate(-1.05 -0.89)" fill="#0072af"/><path d="M384.16,76.52,382.77,73h-4.86l-1.33,3.5h-2.93l5.6-14.39h2.26l5.85,14.39Zm-3.28-8.67a15.78,15.78,0,0,1-.52-1.76h0a11.69,11.69,0,0,1-.52,1.72l-1.07,2.82h3.11Z" transform="translate(-1.05 -0.89)" fill="#0072af"/><path d="M400,76.52l-6.21-8c-.54-.7-.94-1.26-1.37-1.89h0c0,.47,0,1.34,0,2v7.85h-3V62.2h3l6,7.65c.56.71,1,1.28,1.35,1.87h0c0-.68,0-1.61,0-2.22V62.2h2.95V76.52Z" transform="translate(-1.05 -0.89)" fill="#0072af"/><path d="M144.1,100.89a6.88,6.88,0,0,1-7.32-7.23c0-4.11,3.09-7.45,8-7.45a8.47,8.47,0,0,1,3.73.76l0,2.65a6.93,6.93,0,0,0-3.59-1A4.53,4.53,0,0,0,140,93.44c0,2.74,1.76,4.89,4.58,4.89a7.19,7.19,0,0,0,3.57-1l.8,2.09A9,9,0,0,1,144.1,100.89Z" transform="translate(-1.05 -0.89)" fill="#0072af"/><path d="M151.45,100.68V86.36h8.3L159,88.79h-4.54v3.35H159v2.45h-4.56v3.65h5.3v2.44Z" transform="translate(-1.05 -0.89)" fill="#0072af"/><path d="M173,100.68l-6.22-8c-.54-.69-.93-1.26-1.37-1.89h0c0,.48,0,1.35,0,2v7.85h-2.95V86.36h3l6,7.65c.57.71,1,1.28,1.35,1.86h0c0-.67,0-1.6,0-2.21v-7.3h3v14.32Z" transform="translate(-1.05 -0.89)" fill="#0072af"/><path d="M189.06,88.79h-3.84v11.89h-3V88.79H178V86.36h11.72Z" transform="translate(-1.05 -0.89)" fill="#0072af"/><path d="M191.71,100.68V86.36H200l-.78,2.43h-4.54v3.35h4.56v2.45h-4.56v3.65H200v2.44Z" transform="translate(-1.05 -0.89)" fill="#0072af"/><path d="M210.4,100.68c-2.17-3.72-3-5.33-3.56-5.52h-1.11v5.52h-3V86.36h4.17c3.83,0,5.22,1.89,5.22,4.1a4.11,4.11,0,0,1-2.61,3.72v0c.72.41,2.11,2.83,4.26,6.48ZM207,88.83h-1.26V93H207a2.14,2.14,0,0,0,2.19-2.19A2,2,0,0,0,207,88.83Z" transform="translate(-1.05 -0.89)" fill="#0072af"/><path d="M215.88,100.68V86.36h8.3l-.79,2.43h-4.54v3.35h4.57v2.45h-4.57v3.65h5.3v2.44Z" transform="translate(-1.05 -0.89)" fill="#0072af"/><path d="M231.41,100.68h-4.5V86.36h4.76c5.11,0,8,2.76,8,7S236.37,100.68,231.41,100.68Zm.07-11.85h-1.59v9.39h1.63c3.54,0,4.93-2.24,4.93-4.74C236.45,90.66,234.76,88.83,231.48,88.83Z" transform="translate(-1.05 -0.89)" fill="#0072af"/><path d="M259.83,100.68V92.77c0-.52,0-1,.05-1.55h-.05a11,11,0,0,1-.89,1.5l-2.65,4.07h-1.37L252,92.62a10,10,0,0,1-.91-1.4H251c0,.55,0,1,0,1.46v8h-2.95V86.36h2.74l3.76,5.36c.43.59.73,1.09,1,1.61h0a12.93,12.93,0,0,1,1-1.69l3.43-5.28h2.74v14.32Z" transform="translate(-1.05 -0.89)" fill="#0072af"/><path d="M266.09,100.68V86.36h8.3l-.78,2.43h-4.54v3.35h4.56v2.45h-4.56v3.65h5.3v2.44Z" transform="translate(-1.05 -0.89)" fill="#0072af"/><path d="M283.84,100.89a6.88,6.88,0,0,1-7.32-7.23c0-4.11,3.09-7.45,8-7.45a8.47,8.47,0,0,1,3.73.76l0,2.65a6.89,6.89,0,0,0-3.58-1,4.53,4.53,0,0,0-4.85,4.82c0,2.74,1.76,4.89,4.58,4.89a7.19,7.19,0,0,0,3.57-1l.8,2.09A9,9,0,0,1,283.84,100.89Z" transform="translate(-1.05 -0.89)" fill="#0072af"/><path d="M300.79,100.68v-6h-6.62v6h-3V86.36h3v5.76h6.62V86.36h3v14.32Z" transform="translate(-1.05 -0.89)" fill="#0072af"/><path d="M316.37,100.68,315,97.18h-4.86l-1.33,3.5h-2.93l5.6-14.39h2.26l5.85,14.39ZM313.09,92a16.43,16.43,0,0,1-.52-1.76h0A11.25,11.25,0,0,1,312,92L311,94.79h3.11Z" transform="translate(-1.05 -0.89)" fill="#0072af"/><path d="M330,88.79h-3.84v11.89h-3V88.79h-4.2V86.36h11.72Z" transform="translate(-1.05 -0.89)" fill="#0072af"/><path d="M340.27,100.68c-2.17-3.72-3-5.33-3.56-5.52H335.6v5.52h-3V86.36h4.18c3.82,0,5.21,1.89,5.21,4.1a4.11,4.11,0,0,1-2.61,3.72v0c.72.41,2.11,2.83,4.26,6.48Zm-3.41-11.85H335.6V93h1.26a2.15,2.15,0,0,0,2.2-2.19A2,2,0,0,0,336.86,88.83Z" transform="translate(-1.05 -0.89)" fill="#0072af"/><path d="M357.15,98.76a8.12,8.12,0,0,1-10.49.4,7.19,7.19,0,0,1-2.28-5.48,7.47,7.47,0,0,1,2.06-5.34,7.27,7.27,0,0,1,5.32-2.13,6.89,6.89,0,0,1,7.39,7.3A7.31,7.31,0,0,1,357.15,98.76Zm-5.39-10.12c-2.47,0-4.28,1.8-4.28,4.93s1.81,4.93,4.28,4.93S356,96.7,356,93.57,354.24,88.64,351.76,88.64Z" transform="translate(-1.05 -0.89)" fill="#0072af"/><path d="M372.38,100.68l-6.21-8c-.54-.69-.93-1.26-1.37-1.89h0c0,.48,0,1.35,0,2v7.85h-2.95V86.36h3l6,7.65c.57.71,1,1.28,1.35,1.86h0c0-.67,0-1.6,0-2.21v-7.3h2.95v14.32Z" transform="translate(-1.05 -0.89)" fill="#0072af"/><path d="M378.45,100.68V86.36h3v14.32Z" transform="translate(-1.05 -0.89)" fill="#0072af"/><path d="M391.44,100.89a6.88,6.88,0,0,1-7.32-7.23c0-4.11,3.08-7.45,8-7.45a8.48,8.48,0,0,1,3.74.76l0,2.65a6.93,6.93,0,0,0-3.59-1,4.52,4.52,0,0,0-4.84,4.82c0,2.74,1.76,4.89,4.58,4.89a7.15,7.15,0,0,0,3.56-1l.81,2.09A9,9,0,0,1,391.44,100.89Z" transform="translate(-1.05 -0.89)" fill="#0072af"/><path d="M402.67,100.89a8.09,8.09,0,0,1-4.56-1.34l1.15-2.15a6,6,0,0,0,3.28,1.1c1,0,2.22-.39,2.22-1.47,0-1.89-3.48-2.22-5.21-4.2a3.68,3.68,0,0,1-.92-2.54c0-2.17,1.72-4.08,4.87-4.08a7.34,7.34,0,0,1,3.61.87l-.05,2.56a7,7,0,0,0-3.41-1c-1.06,0-1.89.47-1.89,1.3,0,2.48,6.15,2.26,6.15,6.76C407.91,99.26,405.61,100.89,402.67,100.89Z" transform="translate(-1.05 -0.89)" fill="#0072af"/><path d="M117.78,67.15h-5.41v6.12h5.41v2.32H105.14V73.27h5.22V67.15h-5.22V64.83h12.64Z" transform="translate(-1.05 -0.89)" fill="#fff"/><path d="M117.78,53.45h-5.41v6.11h5.41v2.32H105.14V59.56h5.22V53.45h-5.22V51.13h12.64Z" transform="translate(-1.05 -0.89)" fill="#fff"/><path d="M118,42.4a6,6,0,0,1-6.38,6.37A6.48,6.48,0,0,1,105,41.92a7.05,7.05,0,0,1,.69-3.28l2.11,0a6,6,0,0,0-.9,3.21,4.21,4.21,0,0,0,4.5,4.39C114,46.26,116,44.65,116,42a6.38,6.38,0,0,0-.85-3.11l1.67-.63A7.68,7.68,0,0,1,118,42.4Z" transform="translate(-1.05 -0.89)" fill="#fff"/><path d="M117.78,25.72h-7.52c-.46,0-.86,0-1.36,0v0a10.06,10.06,0,0,1,1.31.77l4.06,2.59v1.15l-4.12,2.84a7.2,7.2,0,0,1-1.25.76v0c.52,0,.92,0,1.31,0h7.57v2.32H105.14V34l5.07-3.49a11.94,11.94,0,0,1,1.34-.85v0a13,13,0,0,1-1.4-.79l-5-3.22V23.4h12.64Z" transform="translate(-1.05 -0.89)" fill="#fff"/></svg>